<svg width="1020" height="420" viewBox="0 0 1020 420" fill="none" xmlns="http://www.w3.org/2000/svg">
<rect width="1020" height="420" fill="#E69D25" fill-opacity="0.05"/>
<path d="M665.51 109.772L706.761 68.4934C699.427 72.6868 692.644 77.6927 686.489 83.38L680.386 89.4867C674.703 95.6196 669.701 102.434 665.51 109.772Z" fill="#E69C24" fill-opacity="0.5"/>
<path d="M653.2 142.586L739.552 56.1754C737.168 56.6472 734.811 57.2238 732.48 57.8528L654.876 135.51C654.221 137.842 653.671 140.201 653.2 142.586Z" fill="#E69C24" fill-opacity="0.5"/>
<path d="M651 164.549C651 164.785 651 165.021 651 165.257L762.181 54C761.945 54 761.709 54 761.474 54C759.876 54 758.278 54.0524 756.681 54.1048L651.105 159.753C651.052 161.351 651 162.924 651 164.549Z" fill="#E69C24" fill-opacity="0.5"/>
<path d="M652.729 184.022L780.986 55.6774C779.441 55.4154 777.869 55.1533 776.324 54.9436L652.021 179.331C652.205 180.929 652.44 182.476 652.729 184.022Z" fill="#E69C24" fill-opacity="0.5"/>
<path d="M656.919 200.324L797.251 59.8971C795.889 59.4254 794.527 59.006 793.165 58.5867L655.636 196.209C656.029 197.598 656.448 198.961 656.919 200.324Z" fill="#E69C24" fill-opacity="0.5"/>
<path d="M663.022 214.713L811.656 65.9774C810.451 65.3746 809.246 64.7718 808.015 64.2214L661.241 211.07C661.817 212.301 662.393 213.507 663.022 214.713Z" fill="#E69C24" fill-opacity="0.5"/>
<path d="M670.669 227.529L824.437 73.6565C823.363 72.9227 822.289 72.1888 821.216 71.4812L668.522 224.279C669.229 225.379 669.936 226.454 670.669 227.529Z" fill="#E69C24" fill-opacity="0.5"/>
<path d="M679.758 238.929L835.83 82.751C834.887 81.8861 833.918 81.0475 832.949 80.235L677.217 236.073C678.055 237.042 678.893 237.986 679.758 238.929Z" fill="#E69C24" fill-opacity="0.5"/>
<path d="M690.181 248.994L845.887 93.1824C845.076 92.2127 844.237 91.243 843.373 90.2994L687.301 246.478C688.243 247.343 689.212 248.181 690.181 248.994Z" fill="#E69C24" fill-opacity="0.5"/>
<path d="M701.968 257.695L854.609 104.95C853.902 103.849 853.195 102.775 852.435 101.726L698.72 255.546C699.794 256.28 700.868 257.014 701.968 257.695Z" fill="#E69C24" fill-opacity="0.5"/>
<path d="M715.194 264.955L861.838 118.212C861.262 116.98 860.686 115.774 860.083 114.569L711.554 263.199C712.759 263.802 713.963 264.378 715.194 264.955Z" fill="#E69C24" fill-opacity="0.5"/>
<path d="M730.071 270.563L867.469 133.098C867.05 131.709 866.631 130.346 866.186 129.009L725.985 269.305C727.32 269.725 728.683 270.144 730.071 270.563Z" fill="#E69C24" fill-opacity="0.5"/>
<path d="M746.938 274.154L871.031 149.977C870.822 148.404 870.586 146.858 870.324 145.285L742.276 273.42C743.821 273.709 745.366 273.944 746.938 274.154Z" fill="#E69C24" fill-opacity="0.5"/>
<path d="M761.5 275.124C763.203 275.124 764.905 275.071 766.581 274.993L871.869 169.633C871.948 167.956 872 166.252 872 164.549C872 164.418 872 164.26 872 164.129L761.107 275.098C761.212 275.098 761.369 275.124 761.5 275.124Z" fill="#E69C24" fill-opacity="0.5"/>
<path d="M790.912 271.14L868.019 193.981C868.674 191.649 869.25 189.264 869.721 186.879L783.788 272.87C786.198 272.372 788.581 271.795 790.912 271.14Z" fill="#E69C24" fill-opacity="0.5"/>
<path d="M857.097 220.006L816.921 260.211C833.552 250.54 847.433 236.649 857.097 220.006Z" fill="#E69C24" fill-opacity="0.5"/>
<path d="M550.51 200.772L591.761 159.493C584.427 163.687 577.644 168.693 571.489 174.38L565.386 180.487C559.703 186.62 554.701 193.434 550.51 200.772Z" fill="#114A82" fill-opacity="0.3"/>
<path d="M538.2 233.586L624.552 147.175C622.168 147.647 619.811 148.224 617.48 148.853L539.876 226.51C539.221 228.842 538.671 231.201 538.2 233.586Z" fill="#114A82" fill-opacity="0.3"/>
<path d="M536 255.549C536 255.785 536 256.021 536 256.257L647.181 145C646.945 145 646.709 145 646.474 145C644.876 145 643.278 145.052 641.681 145.105L536.105 250.753C536.052 252.351 536 253.924 536 255.549Z" fill="#114A82" fill-opacity="0.3"/>
<path d="M537.729 275.022L665.986 146.677C664.441 146.415 662.869 146.153 661.324 145.944L537.021 270.331C537.205 271.929 537.44 273.476 537.729 275.022Z" fill="#114A82" fill-opacity="0.3"/>
<path d="M541.919 291.324L682.251 150.897C680.889 150.425 679.527 150.006 678.165 149.587L540.636 287.209C541.029 288.598 541.448 289.961 541.919 291.324Z" fill="#114A82" fill-opacity="0.3"/>
<path d="M548.022 305.713L696.656 156.977C695.451 156.375 694.246 155.772 693.015 155.221L546.241 302.07C546.817 303.301 547.393 304.507 548.022 305.713Z" fill="#114A82" fill-opacity="0.3"/>
<path d="M555.669 318.529L709.437 164.657C708.363 163.923 707.289 163.189 706.216 162.481L553.522 315.279C554.229 316.379 554.936 317.454 555.669 318.529Z" fill="#114A82" fill-opacity="0.3"/>
<path d="M564.758 329.929L720.83 173.751C719.887 172.886 718.918 172.047 717.949 171.235L562.217 327.073C563.055 328.042 563.893 328.986 564.758 329.929Z" fill="#114A82" fill-opacity="0.3"/>
<path d="M575.181 339.994L730.887 184.182C730.076 183.213 729.237 182.243 728.373 181.299L572.301 337.478C573.243 338.343 574.212 339.181 575.181 339.994Z" fill="#114A82" fill-opacity="0.3"/>
<path d="M586.968 348.695L739.609 195.95C738.902 194.849 738.195 193.775 737.435 192.726L583.72 346.546C584.794 347.28 585.868 348.014 586.968 348.695Z" fill="#114A82" fill-opacity="0.3"/>
<path d="M600.194 355.955L746.838 209.212C746.262 207.98 745.686 206.774 745.083 205.569L596.554 354.199C597.759 354.802 598.963 355.378 600.194 355.955Z" fill="#114A82" fill-opacity="0.3"/>
<path d="M615.071 361.563L752.469 224.098C752.05 222.709 751.631 221.346 751.186 220.009L610.985 360.305C612.32 360.725 613.683 361.144 615.071 361.563Z" fill="#114A82" fill-opacity="0.3"/>
<path d="M631.938 365.154L756.031 240.977C755.822 239.404 755.586 237.858 755.324 236.285L627.276 364.42C628.821 364.709 630.366 364.944 631.938 365.154Z" fill="#114A82" fill-opacity="0.3"/>
<path d="M646.5 366.124C648.203 366.124 649.905 366.071 651.581 365.993L756.869 260.633C756.948 258.956 757 257.252 757 255.549C757 255.418 757 255.26 757 255.129L646.107 366.098C646.212 366.098 646.369 366.124 646.5 366.124Z" fill="#114A82" fill-opacity="0.3"/>
<path d="M675.912 362.14L753.019 284.981C753.674 282.649 754.25 280.264 754.721 277.879L668.788 363.87C671.198 363.372 673.581 362.795 675.912 362.14Z" fill="#114A82" fill-opacity="0.3"/>
<path d="M742.097 311.006L701.921 351.211C718.552 341.54 732.433 327.649 742.097 311.006Z" fill="#114A82" fill-opacity="0.3"/>
<path d="M819.585 398.932C825.782 396.344 828.711 389.219 826.125 383.017C823.54 376.816 816.42 373.885 810.222 376.472C804.024 379.06 801.096 386.185 803.681 392.387C806.267 398.588 813.387 401.519 819.585 398.932Z" fill="#FF9D00"/>
<path d="M947.47 367C936.054 367 926.794 376.266 926.794 387.69C926.794 399.114 936.054 408.38 947.47 408.38C958.886 408.38 968.146 399.114 968.146 387.69C968.146 376.266 958.886 367 947.47 367ZM947.47 397.565C942.024 397.565 937.613 393.152 937.613 387.702C937.613 382.252 942.024 377.839 947.47 377.839C952.916 377.839 957.327 382.252 957.327 387.702C957.327 393.152 952.916 397.565 947.47 397.565Z" fill="#FF9D00"/>
<path d="M995.06 375.681C988.432 375.681 983.059 381.058 983.059 387.69C983.059 394.323 988.432 399.699 995.06 399.699C1001.69 399.699 1007.06 394.323 1007.06 387.69C1007.06 381.058 1001.69 375.681 995.06 375.681ZM995.06 390.933C993.269 390.933 991.819 389.482 991.819 387.69C991.819 385.898 993.269 384.447 995.06 384.447C996.851 384.447 998.301 385.898 998.301 387.69C998.301 389.482 996.851 390.933 995.06 390.933Z" fill="#114A82"/>
<path d="M901.525 377.046C895.64 377.046 890.876 381.813 890.876 387.702C890.876 393.591 895.64 398.358 901.525 398.358C907.41 398.358 912.174 393.591 912.174 387.702C912.174 381.813 907.41 377.046 901.525 377.046ZM901.525 392.774C898.723 392.774 896.444 390.494 896.444 387.69C896.444 384.886 898.723 382.606 901.525 382.606C904.327 382.606 906.606 384.886 906.606 387.69C906.606 390.494 904.327 392.774 901.525 392.774Z" fill="#FFC200"/>
<path d="M872.13 293H860V305.13H872.13V293Z" stroke="#114A82" stroke-width="2" stroke-miterlimit="10"/>
<path d="M894.57 293H882.44V305.13H894.57V293Z" stroke="#114A82" stroke-width="2" stroke-miterlimit="10"/>
<path d="M917 293H904.87V305.13H917V293Z" stroke="#114A82" stroke-width="2" stroke-miterlimit="10"/>
<path d="M939.44 293H927.31V305.13H939.44V293Z" stroke="#114A82" stroke-width="2" stroke-miterlimit="10"/>
<path d="M961.87 293H949.74V305.13H961.87V293Z" stroke="#114A82" stroke-width="2" stroke-miterlimit="10"/>
<path d="M984.3 293H972.17V305.13H984.3V293Z" stroke="#114A82" stroke-width="2" stroke-miterlimit="10"/>
<path d="M1006.74 293H994.61V305.13H1006.74V293Z" stroke="#114A82" stroke-width="2" stroke-miterlimit="10"/>
<path d="M872.13 312.79H860V324.92H872.13V312.79Z" stroke="#114A82" stroke-width="2" stroke-miterlimit="10"/>
<path d="M894.57 312.79H882.44V324.92H894.57V312.79Z" stroke="#114A82" stroke-width="2" stroke-miterlimit="10"/>
<path d="M917 312.79H904.87V324.92H917V312.79Z" stroke="#114A82" stroke-width="2" stroke-miterlimit="10"/>
<path d="M939.44 312.79H927.31V324.92H939.44V312.79Z" stroke="#114A82" stroke-width="2" stroke-miterlimit="10"/>
<path d="M961.87 312.79H949.74V324.92H961.87V312.79Z" stroke="#114A82" stroke-width="2" stroke-miterlimit="10"/>
<path d="M984.3 312.79H972.17V324.92H984.3V312.79Z" stroke="#114A82" stroke-width="2" stroke-miterlimit="10"/>
<path d="M1006.74 312.79H994.61V324.92H1006.74V312.79Z" stroke="#114A82" stroke-width="2" stroke-miterlimit="10"/>
<path d="M860 283H872.13" stroke="#114A82" stroke-width="2" stroke-miterlimit="10" stroke-linecap="square"/>
<path d="M882.44 283H894.56" stroke="#114A82" stroke-width="2" stroke-miterlimit="10" stroke-linecap="square"/>
</svg>
