<svg width="339" height="401" viewBox="0 0 339 401" fill="none" xmlns="http://www.w3.org/2000/svg">
<path d="M264.53 6.36161L277.103 6.36161M270.816 12.7232L270.816 -2.6219e-07L270.816 12.7232Z" stroke="#E69D25" stroke-opacity="0.5" stroke-width="2" stroke-miterlimit="10"/>
<path d="M295.479 6.36161L308.051 6.36161M301.765 12.7232L301.765 -2.6219e-07L301.765 12.7232Z" stroke="#E69D25" stroke-opacity="0.5" stroke-width="2" stroke-miterlimit="10"/>
<path d="M325.46 6.36161L338.033 6.36161M331.746 12.7232L331.746 -2.68366e-07L331.746 12.7232Z" stroke="#E69D25" stroke-opacity="0.5" stroke-width="2" stroke-miterlimit="10"/>
<path d="M172.651 59.2119L185.224 59.2119M178.938 65.5735L178.938 52.8503L178.938 65.5735Z" stroke="#E69D25" stroke-opacity="0.5" stroke-width="2" stroke-miterlimit="10"/>
<path d="M203.6 59.2119L216.173 59.2119M209.886 65.5735L209.886 52.8503L209.886 65.5735Z" stroke="#E69D25" stroke-opacity="0.5" stroke-width="2" stroke-miterlimit="10"/>
<path d="M233.581 59.2119L246.154 59.2119M239.868 65.5735L239.868 52.8503L239.868 65.5735Z" stroke="#E69D25" stroke-opacity="0.5" stroke-width="2" stroke-miterlimit="10"/>
<path d="M264.53 112.062L277.103 112.062M270.816 118.424L270.816 105.701L270.816 118.424Z" stroke="#E69D25" stroke-opacity="0.5" stroke-width="2" stroke-miterlimit="10"/>
<path d="M295.479 112.062L308.051 112.062M301.765 118.424L301.765 105.701L301.765 118.424Z" stroke="#E69D25" stroke-opacity="0.5" stroke-width="2" stroke-miterlimit="10"/>
<path d="M325.46 112.062L338.033 112.062M331.746 118.424L331.746 105.701L331.746 118.424Z" stroke="#E69D25" stroke-opacity="0.5" stroke-width="2" stroke-miterlimit="10"/>
<path d="M247.121 32.7868L259.694 32.7868M253.408 39.1484L253.408 26.4252L253.408 39.1484Z" stroke="#E69D25" stroke-opacity="0.5" stroke-width="2" stroke-miterlimit="10"/>
<path d="M278.07 32.7868L290.643 32.7868M284.356 39.1484L284.356 26.4252L284.356 39.1484Z" stroke="#E69D25" stroke-opacity="0.5" stroke-width="2" stroke-miterlimit="10"/>
<path d="M308.051 32.7868L320.624 32.7868M314.338 39.1484L314.338 26.4252L314.338 39.1484Z" stroke="#E69D25" stroke-opacity="0.5" stroke-width="2" stroke-miterlimit="10"/>
<path d="M155.243 85.6371L167.816 85.6371M161.529 91.9987L161.529 79.2755L161.529 91.9987Z" stroke="#E69D25" stroke-opacity="0.5" stroke-width="2" stroke-miterlimit="10"/>
<path d="M186.191 85.6371L198.764 85.6371M192.478 91.9987L192.478 79.2755L192.478 91.9987Z" stroke="#E69D25" stroke-opacity="0.5" stroke-width="2" stroke-miterlimit="10"/>
<path d="M216.173 85.6371L228.746 85.6371M222.459 91.9987L222.459 79.2755L222.459 91.9987Z" stroke="#E69D25" stroke-opacity="0.5" stroke-width="2" stroke-miterlimit="10"/>
<path d="M247.121 138.487L259.694 138.487M253.408 144.849L253.408 132.126L253.408 144.849Z" stroke="#E69D25" stroke-opacity="0.5" stroke-width="2" stroke-miterlimit="10"/>
<path d="M278.07 138.487L290.643 138.487M284.356 144.849L284.356 132.126L284.356 144.849Z" stroke="#E69D25" stroke-opacity="0.5" stroke-width="2" stroke-miterlimit="10"/>
<path d="M308.051 138.487L320.624 138.487M314.338 144.849L314.338 132.126L314.338 144.849Z" stroke="#E69D25" stroke-opacity="0.5" stroke-width="2" stroke-miterlimit="10"/>
<path d="M265.497 59.2119L278.07 59.2119M271.784 65.5735L271.784 52.8503L271.784 65.5735Z" stroke="#E69D25" stroke-opacity="0.5" stroke-width="2" stroke-miterlimit="10"/>
<path d="M296.446 59.2119L309.019 59.2119M302.732 65.5735L302.732 52.8503L302.732 65.5735Z" stroke="#E69D25" stroke-opacity="0.5" stroke-width="2" stroke-miterlimit="10"/>
<path d="M326.427 59.2119L339 59.2119M332.714 65.5735L332.714 52.8503L332.714 65.5735Z" stroke="#E69D25" stroke-opacity="0.5" stroke-width="2" stroke-miterlimit="10"/>
<path d="M173.619 112.062L186.191 112.062M179.905 118.424L179.905 105.701L179.905 118.424Z" stroke="#E69D25" stroke-opacity="0.5" stroke-width="2" stroke-miterlimit="10"/>
<path d="M204.567 112.062L217.14 112.062M210.854 118.424L210.854 105.701L210.854 118.424Z" stroke="#E69D25" stroke-opacity="0.5" stroke-width="2" stroke-miterlimit="10"/>
<path d="M234.549 112.062L247.121 112.062M240.835 118.424L240.835 105.701L240.835 118.424Z" stroke="#E69D25" stroke-opacity="0.5" stroke-width="2" stroke-miterlimit="10"/>
<path d="M265.497 164.913L278.07 164.913M271.784 171.274L271.784 158.551L271.784 171.274Z" stroke="#E69D25" stroke-opacity="0.5" stroke-width="2" stroke-miterlimit="10"/>
<path d="M296.446 164.913L309.019 164.913M302.732 171.274L302.732 158.551L302.732 171.274Z" stroke="#E69D25" stroke-opacity="0.5" stroke-width="2" stroke-miterlimit="10"/>
<path d="M326.427 164.913L339 164.913M332.714 171.274L332.714 158.551L332.714 171.274Z" stroke="#E69D25" stroke-opacity="0.5" stroke-width="2" stroke-miterlimit="10"/>
<path d="M159.135 313.16L159.111 335.999L178.648 324.591L159.135 313.16Z" fill="#E69D25" fill-opacity="0.4"/>
<path d="M186.202 300.464L186.166 348.719L227.455 324.627L186.202 300.464ZM192.647 311.8L214.529 324.615L192.635 337.395L192.647 311.8Z" fill="#114A82" fill-opacity="0.4"/>
<path d="M26.6129 33.2761V79.7293H72.4859V33.2761H26.6129ZM66.0992 73.2619H32.9995V39.7435H66.0992V73.2619Z" fill="#E69D25" fill-opacity="0.4"/>
</svg>
