<svg width="339" height="401" viewBox="0 0 339 401" fill="none" xmlns="http://www.w3.org/2000/svg">
<path d="M197.786 60.3489L179.402 79.8705L161.007 60.3489L142.623 79.8705L124.239 60.3489L108.024 77.5675L91.7978 60.3489L73.4137 79.8705L55.0183 60.3489L36.6341 79.8705L18.25 60.3489L-1.52588e-05 79.7273L2.03521 81.899L18.25 64.6804L36.6341 84.202L55.0183 64.6804L73.4137 84.202L91.7978 64.6804L108.024 81.9109L124.239 64.6804L142.623 84.202L161.007 64.6804L179.402 84.202L197.786 64.6804L214.012 81.899L216.036 79.7273L197.786 60.3489Z" fill="#0B315E" fill-opacity="0.2"/>
<path d="M197.786 25.4464L179.402 44.9679L161.007 25.4464L142.622 44.9679L124.238 25.4464L109.656 40.9348L109.645 45.2782L124.238 29.7779L142.622 49.2994L161.007 29.7779L179.402 49.2994L197.786 29.7779L214.012 46.9965L216.036 44.8128L197.786 25.4464Z" fill="#FF9D00" fill-opacity="0.2"/>
<path d="M128.621 373.596C137.163 373.596 144.087 366.208 144.087 357.093C144.087 347.979 137.163 340.591 128.621 340.591C120.08 340.591 113.156 347.979 113.156 357.093C113.156 366.208 120.08 373.596 128.621 373.596Z" fill="#E69D25" fill-opacity="0.4"/>
<path d="M193.825 357.023L201.462 348.862L199.215 346.463L189.318 357.023L199.215 367.584L201.462 365.173L193.825 357.023Z" fill="#E69D25" fill-opacity="0.4"/>
<path d="M207.166 357.023L214.803 348.862L212.556 346.463L202.659 357.023L212.556 367.584L214.803 365.173L207.166 357.023Z" fill="#E69D25" fill-opacity="0.4"/>
<path d="M220.663 357.023L228.312 348.862L226.053 346.463L216.167 357.023L226.053 367.584L228.312 365.173L220.663 357.023Z" fill="#E69D25" fill-opacity="0.4"/>
<path d="M166.987 357.023L174.624 348.862L172.377 346.463L162.48 357.023L172.377 367.584L174.624 365.173L166.987 357.023Z" fill="#E69D25" fill-opacity="0.4"/>
<path d="M180.327 357.023L187.965 348.862L185.717 346.463L175.821 357.023L185.717 367.584L187.965 365.173L180.327 357.023Z" fill="#E69D25" fill-opacity="0.4"/>
<path d="M28.7666 49.6216C35.0177 49.6216 40.0946 44.2162 40.0946 37.534C40.0946 30.8637 35.0289 25.4464 28.7666 25.4464C22.5156 25.4464 17.4387 30.8518 17.4387 37.534C17.4387 44.2162 22.5044 49.6216 28.7666 49.6216ZM28.7666 31.8661C31.7077 31.8661 34.0895 34.4077 34.0895 37.5459C34.0895 40.6842 31.7077 43.2258 28.7666 43.2258C25.8256 43.2258 23.4437 40.6842 23.4437 37.5459C23.4437 34.4077 25.8256 31.8661 28.7666 31.8661Z" fill="#114A82" fill-opacity="0.2"/>
<path d="M66.6085 49.6216C72.8596 49.6216 77.9364 44.2162 77.9364 37.534C77.9364 30.8637 72.8707 25.4464 66.6085 25.4464C60.3574 25.4464 55.2805 30.8518 55.2805 37.534C55.2805 44.2162 60.3574 49.6216 66.6085 49.6216ZM66.6085 31.8661C69.5495 31.8661 71.9314 34.4077 71.9314 37.5459C71.9314 40.6842 69.5495 43.2258 66.6085 43.2258C63.6675 43.2258 61.2856 40.6842 61.2856 37.5459C61.2967 34.4077 63.6675 31.8661 66.6085 31.8661Z" fill="#E69C24" fill-opacity="0.4"/>
<path d="M52.278 197.23L68.9236 179.468C65.9644 181.272 63.2271 183.426 60.7435 185.873L58.281 188.501C55.9876 191.14 53.969 194.072 52.278 197.23Z" fill="#E69D25" fill-opacity="0.5"/>
<path d="M47.3106 211.349L82.1554 174.168C81.1936 174.371 80.2424 174.619 79.3018 174.889L47.987 208.304C47.7228 209.308 47.5008 210.323 47.3106 211.349Z" fill="#E69D25" fill-opacity="0.5"/>
<path d="M46.4229 220.8C46.4229 220.901 46.4229 221.003 46.4229 221.104L91.2866 173.232C91.1915 173.232 91.0964 173.232 91.0013 173.232C90.3566 173.232 89.7119 173.254 89.0672 173.277L46.4651 218.736C46.444 219.424 46.4229 220.1 46.4229 220.8Z" fill="#E69D25" fill-opacity="0.5"/>
<path d="M47.1204 229.179L98.875 173.953C98.2514 173.841 97.6174 173.728 96.9938 173.638L46.8351 227.16C46.909 227.848 47.0042 228.513 47.1204 229.179Z" fill="#E69D25" fill-opacity="0.5"/>
<path d="M48.8113 236.193L105.438 175.769C104.889 175.566 104.339 175.386 103.789 175.205L48.2934 234.423C48.452 235.02 48.621 235.607 48.8113 236.193Z" fill="#E69D25" fill-opacity="0.5"/>
<path d="M51.2739 242.384L111.251 178.385C110.765 178.126 110.279 177.866 109.782 177.63L50.5552 240.817C50.7877 241.347 51.0202 241.866 51.2739 242.384Z" fill="#E69D25" fill-opacity="0.5"/>
<path d="M54.3598 247.899L116.408 181.69C115.975 181.374 115.542 181.058 115.108 180.754L53.4932 246.501C53.7786 246.974 54.0639 247.437 54.3598 247.899Z" fill="#E69D25" fill-opacity="0.5"/>
<path d="M58.0272 252.805L121.006 185.603C120.625 185.231 120.234 184.87 119.843 184.52L57.002 251.575C57.3402 251.993 57.6784 252.399 58.0272 252.805Z" fill="#E69D25" fill-opacity="0.5"/>
<path d="M62.2334 257.135L125.064 190.091C124.736 189.674 124.398 189.257 124.049 188.851L61.0709 256.053C61.4514 256.425 61.8424 256.786 62.2334 257.135Z" fill="#E69D25" fill-opacity="0.5"/>
<path d="M66.9895 260.879L128.584 195.155C128.298 194.681 128.013 194.219 127.706 193.768L65.679 259.954C66.1123 260.27 66.5456 260.586 66.9895 260.879Z" fill="#E69D25" fill-opacity="0.5"/>
<path d="M72.3266 264.003L131.501 200.861C131.268 200.331 131.035 199.812 130.792 199.294L70.8576 263.247C71.3437 263.507 71.8299 263.755 72.3266 264.003Z" fill="#E69D25" fill-opacity="0.5"/>
<path d="M78.3295 266.416L133.773 207.267C133.604 206.669 133.434 206.082 133.255 205.507L76.6807 265.875C77.2197 266.055 77.7694 266.236 78.3295 266.416Z" fill="#E69D25" fill-opacity="0.5"/>
<path d="M85.1358 267.961L135.21 214.529C135.126 213.853 135.03 213.187 134.925 212.511L83.2546 267.646C83.8781 267.77 84.5016 267.871 85.1358 267.961Z" fill="#E69D25" fill-opacity="0.5"/>
<path d="M91.012 268.379C91.699 268.379 92.3859 268.356 93.0623 268.322L135.548 222.987C135.58 222.265 135.601 221.532 135.601 220.799C135.601 220.743 135.601 220.675 135.601 220.619L90.8535 268.367C90.8957 268.367 90.9592 268.379 91.012 268.379Z" fill="#E69D25" fill-opacity="0.5"/>
<path d="M102.88 266.665L133.995 233.464C134.259 232.46 134.491 231.434 134.681 230.408L100.006 267.409C100.978 267.195 101.94 266.946 102.88 266.665Z" fill="#E69D25" fill-opacity="0.5"/>
<path d="M129.587 244.662L113.375 261.962C120.086 257.8 125.688 251.823 129.587 244.662Z" fill="#E69D25" fill-opacity="0.5"/>
<path d="M95.7995 136.55L112.445 118.788C109.486 120.592 106.749 122.746 104.265 125.193L101.802 127.821C99.509 130.46 97.4904 133.392 95.7995 136.55Z" fill="#114A82" fill-opacity="0.2"/>
<path d="M90.832 150.669L125.677 113.488C124.715 113.691 123.764 113.939 122.823 114.209L91.5085 147.624C91.2442 148.628 91.0223 149.643 90.832 150.669Z" fill="#114A82" fill-opacity="0.2"/>
<path d="M89.9443 160.12C89.9443 160.221 89.9443 160.323 89.9443 160.424L134.808 112.552C134.713 112.552 134.618 112.552 134.523 112.552C133.878 112.552 133.233 112.574 132.589 112.597L89.9865 158.056C89.9654 158.744 89.9443 159.42 89.9443 160.12Z" fill="#114A82" fill-opacity="0.2"/>
<path d="M90.6419 168.499L142.396 113.273C141.773 113.161 141.139 113.048 140.515 112.958L90.3565 166.48C90.4305 167.168 90.5256 167.833 90.6419 168.499Z" fill="#114A82" fill-opacity="0.2"/>
<path d="M92.3328 175.513L148.96 115.089C148.41 114.886 147.861 114.706 147.311 114.525L91.815 173.743C91.9735 174.34 92.1426 174.927 92.3328 175.513Z" fill="#114A82" fill-opacity="0.2"/>
<path d="M94.7954 181.704L154.772 117.705C154.286 117.446 153.8 117.186 153.303 116.95L94.0767 180.137C94.3092 180.667 94.5417 181.186 94.7954 181.704Z" fill="#114A82" fill-opacity="0.2"/>
<path d="M97.8813 187.219L159.93 121.01C159.496 120.694 159.063 120.378 158.63 120.074L97.0147 185.821C97.3 186.294 97.5853 186.757 97.8813 187.219Z" fill="#114A82" fill-opacity="0.2"/>
<path d="M101.549 192.125L164.527 124.923C164.147 124.551 163.756 124.19 163.365 123.84L100.523 190.895C100.862 191.313 101.2 191.719 101.549 192.125Z" fill="#114A82" fill-opacity="0.2"/>
<path d="M105.755 196.455L168.586 129.411C168.258 128.994 167.92 128.577 167.571 128.171L104.592 195.373C104.973 195.745 105.364 196.106 105.755 196.455Z" fill="#114A82" fill-opacity="0.2"/>
<path d="M110.511 200.199L172.105 134.475C171.82 134.001 171.534 133.539 171.228 133.088L109.2 199.275C109.634 199.59 110.067 199.906 110.511 200.199Z" fill="#114A82" fill-opacity="0.2"/>
<path d="M115.848 203.323L175.022 140.181C174.789 139.651 174.557 139.132 174.314 138.614L114.379 202.568C114.865 202.827 115.351 203.075 115.848 203.323Z" fill="#114A82" fill-opacity="0.2"/>
<path d="M121.851 205.736L177.294 146.587C177.125 145.989 176.956 145.402 176.776 144.827L120.202 205.195C120.741 205.375 121.291 205.556 121.851 205.736Z" fill="#114A82" fill-opacity="0.2"/>
<path d="M128.657 207.281L178.732 153.849C178.647 153.173 178.552 152.507 178.446 151.831L126.776 206.966C127.4 207.09 128.023 207.191 128.657 207.281Z" fill="#114A82" fill-opacity="0.2"/>
<path d="M134.533 207.699C135.22 207.699 135.907 207.676 136.584 207.642L179.07 162.307C179.101 161.585 179.122 160.852 179.122 160.119C179.122 160.063 179.122 159.995 179.122 159.939L134.375 207.687C134.417 207.687 134.481 207.699 134.533 207.699Z" fill="#114A82" fill-opacity="0.2"/>
<path d="M146.402 205.985L177.516 172.784C177.78 171.78 178.013 170.754 178.203 169.728L143.527 206.729C144.5 206.515 145.461 206.266 146.402 205.985Z" fill="#114A82" fill-opacity="0.2"/>
<path d="M173.109 183.982L156.897 201.282C163.608 197.12 169.209 191.143 173.109 183.982Z" fill="#114A82" fill-opacity="0.2"/>
<path d="M302.729 279.66C302.729 278.266 301.733 277.259 300.368 277.259C298.99 277.259 297.993 278.266 297.993 279.647C297.993 281.041 298.99 282.036 300.355 282.048C301.733 282.048 302.729 281.053 302.729 279.66Z" fill="#114A82" fill-opacity="0.4"/>
<path d="M302.729 303.619C302.754 302.226 301.782 301.181 300.417 301.156C299.039 301.131 298.006 302.127 297.981 303.495C297.956 304.888 298.928 305.921 300.294 305.946C301.684 305.983 302.705 305 302.729 303.619Z" fill="#114A82" fill-opacity="0.4"/>
<path d="M302.729 327.492C302.742 326.099 301.745 325.078 300.38 325.066C299.002 325.054 297.993 326.061 297.981 327.442C297.969 328.835 298.953 329.843 300.331 329.855C301.721 329.868 302.717 328.885 302.729 327.492Z" fill="#114A82" fill-opacity="0.4"/>
<path d="M286.159 219.872C286.159 221.266 287.143 222.273 288.521 222.273C289.899 222.273 290.895 221.278 290.895 219.885C290.895 218.491 289.899 217.484 288.533 217.484C287.168 217.471 286.172 218.491 286.159 219.872Z" fill="#114A82" fill-opacity="0.4"/>
<path d="M286.159 243.745C286.147 245.138 287.119 246.158 288.497 246.183C289.887 246.196 290.895 245.213 290.908 243.832C290.92 242.439 289.948 241.406 288.583 241.394C287.205 241.369 286.184 242.377 286.159 243.745Z" fill="#114A82" fill-opacity="0.4"/>
<path d="M290.908 267.668C290.895 266.287 289.887 265.279 288.509 265.291C287.144 265.304 286.147 266.336 286.159 267.717C286.172 269.111 287.18 270.093 288.558 270.081C289.936 270.081 290.92 269.061 290.908 267.668Z" fill="#114A82" fill-opacity="0.4"/>
<path d="M290.908 291.702C290.945 290.308 289.985 289.251 288.632 289.201C287.254 289.164 286.209 290.134 286.159 291.503C286.122 292.896 287.082 293.953 288.435 293.991C289.837 294.04 290.871 293.083 290.908 291.702Z" fill="#114A82" fill-opacity="0.4"/>
<path d="M290.908 315.562C290.92 314.169 289.936 313.136 288.583 313.124C287.205 313.111 286.184 314.106 286.172 315.487C286.159 316.881 287.144 317.901 288.509 317.913C289.887 317.926 290.895 316.943 290.908 315.562Z" fill="#114A82" fill-opacity="0.4"/>
<path d="M274.338 231.84C274.35 233.233 275.346 234.228 276.724 234.216C278.102 234.216 279.086 233.208 279.086 231.815C279.086 230.422 278.077 229.426 276.699 229.426C275.334 229.439 274.338 230.459 274.338 231.84Z" fill="#114A82" fill-opacity="0.4"/>
<path d="M276.884 253.349C275.494 253.274 274.424 254.22 274.338 255.576C274.264 256.969 275.199 258.064 276.54 258.138C277.93 258.213 279 257.28 279.074 255.924C279.16 254.506 278.225 253.423 276.884 253.349Z" fill="#114A82" fill-opacity="0.4"/>
<path d="M279.086 279.747C279.123 278.353 278.176 277.296 276.81 277.259C275.432 277.221 274.387 278.192 274.338 279.56C274.301 280.953 275.26 282.011 276.613 282.048C278.016 282.085 279.049 281.128 279.086 279.747Z" fill="#114A82" fill-opacity="0.4"/>
<path d="M279.086 303.52C279.074 302.139 278.053 301.144 276.675 301.169C275.309 301.181 274.325 302.214 274.338 303.607C274.362 304.988 275.371 305.971 276.749 305.958C278.126 305.933 279.098 304.913 279.086 303.52Z" fill="#114A82" fill-opacity="0.4"/>
<path d="M262.516 243.782C262.516 245.176 263.5 246.171 264.878 246.183C266.255 246.183 267.252 245.188 267.252 243.795C267.252 242.402 266.256 241.394 264.89 241.394C263.525 241.394 262.516 242.402 262.516 243.782Z" fill="#114A82" fill-opacity="0.4"/>
<path d="M267.264 267.642C267.24 266.262 266.219 265.266 264.841 265.291C263.475 265.316 262.491 266.349 262.516 267.742C262.541 269.123 263.549 270.106 264.939 270.081C266.317 270.068 267.289 269.048 267.264 267.642Z" fill="#114A82" fill-opacity="0.4"/>
<path d="M267.264 291.652C267.276 290.258 266.292 289.226 264.939 289.214C263.561 289.201 262.54 290.196 262.528 291.577C262.516 292.97 263.488 293.991 264.865 294.003C266.243 294.015 267.252 293.033 267.264 291.652Z" fill="#114A82" fill-opacity="0.4"/>
<path d="M250.694 255.65C250.657 257.043 251.617 258.101 252.97 258.138C254.36 258.176 255.393 257.218 255.43 255.849C255.467 254.456 254.508 253.399 253.155 253.349C251.789 253.299 250.743 254.282 250.694 255.65Z" fill="#114A82" fill-opacity="0.4"/>
<path d="M255.443 279.71C255.467 278.316 254.495 277.271 253.13 277.246C251.752 277.221 250.719 278.217 250.694 279.585C250.67 280.978 251.641 282.011 253.007 282.036C254.397 282.073 255.418 281.09 255.443 279.71Z" fill="#114A82" fill-opacity="0.4"/>
<path d="M243.621 267.655C243.596 266.274 242.588 265.279 241.21 265.304C239.844 265.329 238.86 266.361 238.885 267.742C238.909 269.123 239.918 270.106 241.296 270.093C242.661 270.069 243.645 269.048 243.621 267.655Z" fill="#114A82" fill-opacity="0.4"/>
<path d="M333.446 243.795C333.446 245.188 334.442 246.183 335.832 246.183C337.21 246.183 338.194 245.176 338.194 243.783C338.194 242.389 337.185 241.382 335.82 241.394C334.442 241.394 333.446 242.414 333.446 243.795Z" fill="#114A82" fill-opacity="0.4"/>
<path d="M335.66 270.081C337.05 270.155 338.121 269.222 338.194 267.866C338.268 266.461 337.333 265.378 335.992 265.304C334.615 265.229 333.532 266.174 333.458 267.53C333.372 268.924 334.319 270.018 335.66 270.081Z" fill="#114A82" fill-opacity="0.4"/>
<path d="M338.194 291.652C338.207 290.258 337.222 289.226 335.869 289.214C334.492 289.201 333.47 290.196 333.458 291.577C333.446 292.97 334.418 293.991 335.795 294.003C337.173 294.015 338.17 293.033 338.194 291.652Z" fill="#114A82" fill-opacity="0.4"/>
<path d="M321.624 231.877C321.649 233.258 322.658 234.241 324.035 234.228C325.401 234.216 326.385 233.196 326.36 231.79C326.336 230.409 325.327 229.414 323.949 229.439C322.596 229.451 321.612 230.484 321.624 231.877Z" fill="#114A82" fill-opacity="0.4"/>
<path d="M326.373 255.787C326.385 254.394 325.413 253.374 324.048 253.349C322.67 253.336 321.649 254.319 321.637 255.7C321.624 257.093 322.596 258.113 323.974 258.138C325.339 258.151 326.348 257.168 326.373 255.787Z" fill="#114A82" fill-opacity="0.4"/>
<path d="M326.373 279.672C326.385 278.279 325.401 277.259 324.023 277.259C322.645 277.246 321.637 278.254 321.624 279.635C321.612 281.028 322.608 282.036 323.974 282.048C325.364 282.048 326.36 281.065 326.373 279.672Z" fill="#114A82" fill-opacity="0.4"/>
<path d="M326.373 303.557C326.373 302.164 325.376 301.168 323.999 301.168C322.621 301.168 321.624 302.189 321.637 303.569C321.637 304.963 322.633 305.958 324.023 305.958C325.389 305.945 326.373 304.95 326.373 303.557Z" fill="#114A82" fill-opacity="0.4"/>
<path d="M309.803 219.848C309.79 221.241 310.775 222.249 312.152 222.261C313.53 222.273 314.539 221.278 314.551 219.897C314.563 218.504 313.567 217.484 312.202 217.472C310.836 217.472 309.815 218.479 309.803 219.848Z" fill="#114A82" fill-opacity="0.4"/>
<path d="M309.803 243.758C309.79 245.151 310.775 246.159 312.152 246.171C313.53 246.184 314.539 245.188 314.551 243.807C314.563 242.414 313.567 241.394 312.202 241.382C310.836 241.382 309.815 242.389 309.803 243.758Z" fill="#114A82" fill-opacity="0.4"/>
<path d="M314.551 267.792C314.588 266.398 313.628 265.341 312.275 265.291C310.898 265.254 309.852 266.224 309.803 267.593C309.753 268.986 310.725 270.043 312.078 270.081C313.481 270.13 314.502 269.172 314.551 267.792Z" fill="#114A82" fill-opacity="0.4"/>
<path d="M314.551 291.615C314.551 290.221 313.555 289.214 312.189 289.214C310.811 289.214 309.815 290.221 309.803 291.602C309.803 292.995 310.787 294.003 312.164 294.003C313.555 294.003 314.551 293.008 314.551 291.615Z" fill="#114A82" fill-opacity="0.4"/>
<path d="M314.551 315.537C314.563 314.144 313.567 313.124 312.202 313.111C310.824 313.099 309.815 314.106 309.803 315.487C309.79 316.881 310.787 317.888 312.152 317.901C313.542 317.913 314.539 316.93 314.551 315.537Z" fill="#114A82" fill-opacity="0.4"/>
<path d="M297.981 207.905C297.969 209.298 298.965 210.306 300.331 210.318C301.708 210.331 302.717 209.336 302.717 207.955C302.729 206.562 301.733 205.541 300.367 205.529C299.014 205.517 297.993 206.524 297.981 207.905Z" fill="#114A82" fill-opacity="0.4"/>
<path d="M297.981 231.741C297.932 233.134 298.904 234.191 300.257 234.229C301.647 234.266 302.68 233.308 302.729 231.94C302.766 230.546 301.807 229.489 300.454 229.439C299.076 229.389 298.03 230.372 297.981 231.741Z" fill="#114A82" fill-opacity="0.4"/>
<path d="M302.729 255.775C302.742 254.382 301.757 253.349 300.392 253.337C299.014 253.324 297.993 254.319 297.981 255.7C297.969 257.094 298.953 258.114 300.318 258.126C301.708 258.151 302.717 257.168 302.729 255.775Z" fill="#114A82" fill-opacity="0.4"/>
</svg>
